#!OML:ASF X:\für Bonn\!DataBase\2005_08_11_Bastian_Final\c3d\Bastian.ASF
:FULLY-SPECIFIED
:DEGREES
31
root 3.76019 16.7247 -2.73959 170.223 0.297875 -179.543
lowerback 13.341 -8.43329 0.264607
upperback 5.3287 -10.2339 3.0699
thorax -1.23397 -4.7895 4.44834
lowerneck -14.1999 1.04054 5.33039
upperneck -2.35171 0.98292 -0.466457
head 1.70646 0.634934 -1.0113
rclavicle -7.43455e-014 1.03368e-014
rhumerus 10.6342 43.6797 -83.3772
rradius 117.299
rwrist -3.61155
rhand -25.1449 7.43808
rfingers 7.12502
rthumb 1.37161 -22.5373
lclavicle -7.43455e-014 1.03368e-014
lhumerus -36.2362 -27.6797 105.501
lradius 109.22
lwrist 44.8216
lhand -8.49056 -30.6892
lfingers 7.12502
lthumb 17.4368 -1.4513
rfemur -16.4944 -4.26148 23.5562
rtibia 51.5972
rfoot -20.7728 -4.86475
rtoes 0.631845
lfemur -6.8817 4.91092 -12.2969
ltibia 64.8491
lfoot -10.352 -2.23207
ltoes -34.3134
32
root 3.79794 16.7443 -2.79133 169.759 0.248791 -179.464
lowerback 13.7036 -8.37754 0.307724
upperback 5.34052 -10.119 3.12326
thorax -1.41936 -4.71854 4.51941
lowerneck -14.072 0.965245 5.35896
upperneck -2.22642 0.871931 -0.721645
head 1.72622 0.566003 -1.10628
rclavicle 1.31198e-014 1.51076e-014
rhumerus 11.8701 43.5972 -82.5253
rradius 117.563
rwrist -3.86841
rhand -25.464 7.29737
rfingers 7.12502
rthumb 1.06339 -22.6797
lclavicle 1.31198e-014 1.51076e-014
lhumerus -37.0789 -27.6288 105.245
lradius 108.372
lwrist 44.4365
lhand -8.4633 -30.641
lfingers 7.12502
lthumb 17.463 -1.40534
rfemur -15.4651 -4.51168 23.6731
rtibia 50.9767
rfoot -20.6277 -4.62198
rtoes 1.2208
lfemur -8.84595 5.29258 -11.9126
ltibia 69.0846
lfoot -7.78986 -2.7997
ltoes -34.2614
33
root 3.83567 16.7723 -2.84269 169.258 0.220226 -179.367
lowerback 14.0704 -8.31705 0.40961
upperback 5.38136 -9.98743 3.14541
thorax -1.59361 -4.63668 4.52216
lowerneck -13.9031 0.854782 5.29902
upperneck -2.13601 0.730993 -0.901664
head 1.72401 0.484854 -1.1627
rclavicle 4.37326e-014 -6.20208e-014
rhumerus 13.111 43.4923 -81.6911
rradius 117.78
rwrist -4.15698
rhand -25.8228 7.20421
rfingers 7.12502
rthumb 0.716914 -22.7743
lclavicle 4.37326e-014 -6.20208e-014
lhumerus -37.9629 -27.6104 104.938
lradius 107.503
lwrist 43.9137
lhand -8.43925 -30.5582
lfingers 7.12502
lthumb 17.4861 -1.32461
rfemur -14.3533 -4.78311 23.7976
rtibia 50.2902
rfoot -20.4582 -4.37211
rtoes 1.8463
lfemur -10.8909 5.74771 -11.4744
ltibia 73.517
lfoot -5.82694 -3.61906
ltoes -34.1617
34
root 3.87249 16.796 -2.89324 168.695 0.219079 -179.31
lowerback 14.471 -8.24611 0.508981
upperback 5.45716 -9.84031 3.11217
thorax -1.759 -4.54546 4.46735
lowerneck -13.7403 0.728603 5.19959
upperneck -2.03156 0.573367 -0.995883
head 1.72546 0.398607 -1.18505
rclavicle -7.95139e-014 -7.95139e-015
rhumerus 14.3037 43.3595 -80.9498
rradius 117.955
rwrist -4.40917
rhand -26.1303 7.18489
rfingers 7.12502
rthumb 0.419915 -22.7944
lclavicle -7.95139e-014 -7.95139e-015
lhumerus -38.8308 -27.5942 104.563
lradius 106.575
lwrist 43.3695
lhand -8.33428 -30.3948
lfingers 7.12502
lthumb 17.5872 -1.17023
rfemur -13.1828 -5.05093 23.8703
rtibia 49.5823
rfoot -20.2697 -4.12582
rtoes 2.2757
lfemur -12.9837 6.2474 -11.0607
ltibia 78.1205
lfoot -4.46392 -4.57074
ltoes -33.8018
35
root 3.90904 16.8145 -2.94241 168.075 0.241402 -179.251
lowerback 14.8868 -8.17827 0.619115
upperback 5.59586 -9.68955 3.03677
thorax -1.87458 -4.44942 4.35756
lowerneck -13.583 0.613644 5.1565
upperneck -1.96113 0.425055 -1.07417
head 1.71692 0.318297 -1.21124
rclavicle 4.09496e-014 -4.29375e-014
rhumerus 15.4818 43.2031 -80.304
rradius 118.109
rwrist -4.61183
rhand -26.3031 7.23125
rfingers 7.12502
rthumb 0.253046 -22.7483
lclavicle 4.09496e-014 -4.29375e-014
lhumerus -39.6054 -27.6058 104.01
lradius 105.611
lwrist 42.8613
lhand -8.27148 -30.1429
lfingers 7.12502
lthumb 17.6476 -0.923828
rfemur -11.9709 -5.3356 23.9281
rtibia 48.8943
rfoot -20.0875 -3.84259
rtoes 2.70459
lfemur -15.1063 6.83087 -10.6121
ltibia 82.8142
lfoot -3.63928 -5.5893
ltoes -33.5873
